<?xml version="1.0" encoding="UTF-8" standalone="no"?>
<!-- Created with Inkscape (http://www.inkscape.org/) -->

<svg
   width="235"
   height="95"
   viewBox="0 0 62.177082 25.135417"
   version="1.1"
   id="svg1"
   xmlns:xlink="http://www.w3.org/1999/xlink"
   xmlns="http://www.w3.org/2000/svg"
   xmlns:svg="http://www.w3.org/2000/svg">
  <defs
     id="defs1">
    <linearGradient
       xlink:href="#linearGradient6924"
       id="linearGradient6918"
       x1="42519.285"
       y1="-7078.7891"
       x2="42575.336"
       y2="-6966.9307"
       gradientUnits="userSpaceOnUse" />
    <linearGradient
       id="linearGradient6924">
      <stop
         style="stop-color:#ffffff;stop-opacity:0"
         offset="0"
         id="stop6920" />
      <stop
         style="stop-color:#aaaaaa;stop-opacity:1;"
         offset="0.65597904"
         id="stop6922" />
    </linearGradient>
  </defs>
  <g
     id="layer6"
     style="display:inline">
    <rect
       style="display:inline;fill:none;fill-opacity:1;stroke-width:0.396875"
       id="rect6-6"
       width="62.177082"
       height="25.135416"
       x="6.357829e-07"
       y="3.1789145e-07" />
    <path
       d="m 24.255436,9.4171537 c -0.914023,0 -1.627726,0.307056 -2.141402,0.9209193 -0.520481,0.613855 -0.780872,1.424376 -0.780872,2.4319 0,0.773963 0.190262,1.448031 0.57049,2.021861 0.527139,0.800669 1.327687,1.200929 2.402087,1.200929 0.746991,0 1.397668,-0.27696 1.951587,-0.830775 L 25.746756,14.3714 c -0.493556,0.313617 -0.920387,0.470425 -1.280936,0.470425 -0.547262,0 -0.984301,-0.210158 -1.311266,-0.630508 -0.306845,-0.400374 -0.460415,-0.880901 -0.460415,-1.441344 0,-0.633882 0.130194,-1.147665 0.390436,-1.541323 0.300482,-0.460385 0.724058,-0.690627 1.270875,-0.690627 0.393691,0 0.83073,0.173471 1.311265,0.520428 l 0.51057,-0.830479 C 25.536521,9.6875147 24.895904,9.4171537 24.255436,9.4171537 Z m 18.13905,0 -1.260814,0.7105523 v 5.744845 h 1.020991 l 0.100165,-0.450202 c 0.306843,0.380313 0.740335,0.570414 1.300614,0.570414 0.567381,0 1.044662,-0.170318 1.431549,-0.510603 0.493552,-0.447038 0.74033,-1.104195 0.74033,-1.971585 0,-0.673917 -0.166585,-1.214358 -0.499916,-1.621366 -0.380524,-0.460385 -0.907811,-0.690605 -1.581417,-0.690605 -0.240565,0 -0.460709,0.04672 -0.660884,0.140132 -0.253586,0.120077 -0.450507,0.286961 -0.590613,0.500496 z m -6.786531,0.019923 -1.261704,0.7007433 v 1.451167 c -0.313504,-0.253536 -0.700389,-0.380286 -1.160659,-0.380286 -0.533942,0 -0.990956,0.176917 -1.37118,0.530546 -0.507021,0.473732 -0.760604,1.147501 -0.760604,2.021562 0,0.620544 0.156972,1.12774 0.470475,1.521384 0.373568,0.473743 0.916986,0.710563 1.630834,0.710563 0.253881,0 0.500953,-0.05677 0.740927,-0.170202 0.240117,-0.1134 0.413811,-0.256777 0.520778,-0.430262 l 0.18005,0.480254 h 1.011083 z M 28.50747,11.208701 c -0.654227,0 -1.18477,0.206731 -1.59148,0.620407 -0.447395,0.453718 -0.671093,1.047522 -0.671093,1.781448 0,0.647222 0.200174,1.194548 0.600522,1.641586 0.447396,0.493751 1.00161,0.740617 1.662051,0.740617 0.567085,0 1.064044,-0.193546 1.490875,-0.580523 0.513975,-0.4604 0.77081,-1.061039 0.77081,-1.80168 0,-0.633842 -0.173245,-1.170884 -0.520332,-1.611248 -0.413813,-0.527109 -0.994214,-0.790607 -1.741353,-0.790607 z m 9.923038,0 c -0.647126,0 -1.180918,0.21361 -1.601539,0.640627 -0.467068,0.467065 -0.700683,1.057423 -0.700683,1.771348 0,0.727296 0.20698,1.297832 0.620644,1.711509 0.433933,0.440367 1.038005,0.660574 1.811922,0.660574 0.720511,0 1.32103,-0.21361 1.801566,-0.64063 l -0.320457,-0.670397 c -0.473729,0.266879 -0.927485,0.40021 -1.360977,0.40021 -0.307138,0 -0.574038,-0.100075 -0.800694,-0.30023 -0.221037,-0.206847 -0.344721,-0.463744 -0.370758,-0.770661 h 3.12304 v -0.460312 c 0,-0.660571 -0.173548,-1.197862 -0.520631,-1.611542 -0.400345,-0.487075 -0.960923,-0.730496 -1.681433,-0.730496 z m 10.011065,0 c -0.647125,0 -1.180924,0.21361 -1.601388,0.640627 -0.46722,0.467065 -0.700834,1.057423 -0.700834,1.771348 0,0.727296 0.206981,1.297832 0.620645,1.711509 0.433636,0.440367 1.03756,0.660574 1.811922,0.660574 0.720511,0 1.320883,-0.21361 1.800977,-0.64063 l -0.319868,-0.670397 c -0.473729,0.266879 -0.92763,0.40021 -1.361567,0.40021 -0.306843,0 -0.573596,-0.100075 -0.800693,-0.30023 -0.220743,-0.206847 -0.344129,-0.463744 -0.370168,-0.770661 h 3.122895 v -0.460312 c 0,-0.660571 -0.173403,-1.197862 -0.520484,-1.611542 -0.400349,-0.487075 -0.960926,-0.730496 -1.681437,-0.730496 z m 4.884812,0 c -0.200172,0 -0.397094,0.05332 -0.590611,0.160098 -0.18715,0.100063 -0.313795,0.220206 -0.380525,0.360325 l -0.119982,-0.400212 h -1.071148 v 4.543634 h 1.241435 v -3.262669 c 0.106525,-0.233539 0.273408,-0.350213 0.500511,-0.350213 0.246776,0 0.480092,0.126705 0.700385,0.380277 l 1.060788,-0.580537 C 54.373416,11.49226 53.926609,11.208701 53.326385,11.208701 Z m 3.257229,0 c -0.52714,0 -0.984452,0.176917 -1.371781,0.530545 -0.506865,0.473733 -0.76045,1.147502 -0.76045,2.021562 0,0.613866 0.156827,1.121065 0.470331,1.521385 0.367204,0.473743 0.884578,0.710563 1.551827,0.710563 0.546815,0 0.970393,-0.223638 1.270873,-0.670681 0,1.000842 -0.360255,1.50144 -1.080761,1.50144 -0.507312,0 -0.964472,-0.133582 -1.371183,-0.400493 l -0.320454,0.64063 c 0.527138,0.480398 1.151032,0.720668 1.87169,0.720668 0.693733,0 1.227529,-0.203544 1.601394,-0.610582 0.380226,-0.413675 0.570338,-1.004317 0.570338,-1.771617 v -4.073212 h -0.970834 l -0.100018,0.490373 c 0,-0.06672 -0.09661,-0.166782 -0.290123,-0.300232 -0.293674,-0.20682 -0.650674,-0.31035 -1.070849,-0.310349 z m -18.163313,0.890872 c 0.60067,0 0.917724,0.326876 0.951307,0.980732 h -1.932054 c 0.07353,-0.653856 0.400345,-0.980732 0.980747,-0.980732 z m 10.011065,0 c 0.600226,0 0.917135,0.326876 0.950719,0.980732 H 47.45062 c 0.07353,-0.653856 0.400345,-0.980732 0.980746,-0.980732 z m -19.923896,0.0098 c 0.647274,0 0.970688,0.500345 0.970688,1.501153 0,0.960822 -0.323414,1.441346 -0.970688,1.441346 -0.647421,0 -0.971428,-0.480524 -0.971428,-1.441346 0,-1.000811 0.324007,-1.501153 0.971428,-1.501153 z m 4.948279,0 c 0.220293,0 0.410409,0.07343 0.570637,0.22019 0.166587,0.140137 0.273259,0.32019 0.319865,0.540369 v 1.271141 c -0.03314,0.246853 -0.153128,0.467042 -0.359959,0.660555 -0.20698,0.186801 -0.430383,0.280291 -0.670502,0.280291 -0.647128,0 -0.970838,-0.497151 -0.970838,-1.491332 0,-0.453716 0.100311,-0.813834 0.300483,-1.080707 0.200173,-0.266885 0.470327,-0.400507 0.810314,-0.400507 z m 23.398019,0 c 0.213637,0 0.406854,0.07687 0.580254,0.230307 0.180789,0.146794 0.284206,0.323418 0.310392,0.530252 v 1.151215 c 0,0.2869 -0.100153,0.536902 -0.30033,0.750436 -0.200175,0.20682 -0.436897,0.310339 -0.710448,0.310339 -0.653937,0 -0.98105,-0.497154 -0.98105,-1.491335 0,-0.453716 0.100311,-0.813834 0.300488,-1.080705 0.200172,-0.266884 0.46707,-0.400509 0.800694,-0.400509 z m -13.448202,0.01002 c 0.306697,0 0.546964,0.133331 0.720655,0.400214 0.173247,0.266868 0.260093,0.63044 0.260093,1.090823 0,0.467058 -0.09335,0.834323 -0.280064,1.101237 -0.186712,0.266867 -0.440295,0.400215 -0.760604,0.400215 -0.247076,0 -0.464258,-0.08346 -0.650969,-0.250251 -0.181537,-0.166817 -0.28155,-0.373549 -0.300191,-0.620398 v -1.091115 c 0,-0.286904 0.0969,-0.530307 0.290423,-0.730497 0.200175,-0.200143 0.440293,-0.30023 0.720657,-0.300228 z"
       style="font-style:normal;font-variant:normal;font-weight:bold;font-stretch:normal;font-size:17.8986px;line-height:1.25;font-family:Tajawal;-inkscape-font-specification:'Tajawal Bold';font-variant-ligatures:normal;font-variant-caps:normal;font-variant-numeric:normal;font-variant-east-asian:normal;letter-spacing:-0.284861px;word-spacing:0px;fill:#333333;fill-opacity:1;stroke:none;stroke-width:0.250212"
       id="path6736" />
    <g
       id="g6933"
       transform="matrix(0.31518776,0,0,0.31518776,-3534.8095,599.31165)">
      <path
         id="path6733"
         style="font-variation-settings:normal;opacity:0.5;vector-effect:none;fill:url(#linearGradient6918);fill-opacity:1;stroke:none;stroke-width:3.67846;stroke-linecap:butt;stroke-linejoin:miter;stroke-miterlimit:2;stroke-dasharray:none;stroke-dashoffset:0;stroke-opacity:1;paint-order:stroke markers fill;stop-color:#000000;stop-opacity:1"
         d="m 42519.285,-7078.7891 a 0.76086879,0.56791688 0 0 0 -0.738,0.6739 l 33.586,125.8886 a 87.182358,87.182358 0 0 0 39.381,-33.7636 l -71.565,-92.5196 a 0.76086879,0.56791688 0 0 0 -0.664,-0.2793 z"
         transform="scale(0.26458333)" />
      <path
         id="circle6810"
         style="opacity:1;fill:#666666;fill-opacity:1;stroke:none;stroke-width:2.01453px;stroke-opacity:1;paint-order:stroke markers fill;stop-color:#000000"
         d="m 42517.32,-7119.4805 a 87.182358,87.182358 0 0 0 -86.855,87.1817 87.182358,87.182358 0 0 0 13.312,46.3047 l 72.688,-93.9727 a 1.3609979,1.0158567 0 0 1 2.359,0 l 72.692,93.9766 a 87.182358,87.182358 0 0 0 13.314,-46.3086 87.182358,87.182358 0 0 0 -87.182,-87.1817 87.182358,87.182358 0 0 0 -0.328,0 z"
         transform="scale(0.26458333)" />
    </g>
  </g>
</svg>
