<svg xmlns="http://www.w3.org/2000/svg" xmlns:svg="http://www.w3.org/2000/svg" xmlns:xlink="http://www.w3.org/1999/xlink" id="svg1" width="235" height="95" version="1.1" viewBox="0 0 62.177 25.135"><defs id="defs1"><linearGradient id="linearGradient6918" x1="42519.285" x2="42575.336" y1="-7078.789" y2="-6966.931" gradientUnits="userSpaceOnUse" xlink:href="#linearGradient6924"/><linearGradient id="linearGradient6924"><stop style="stop-color:#fff;stop-opacity:0" id="stop6920" offset="0"/><stop style="stop-color:#aaa;stop-opacity:1" id="stop6922" offset=".656"/></linearGradient></defs><g id="layer7" style="display:inline"><path id="path19" fill="#f4f4f4" d="m 7.6454727,10.141225 h -1.335529 v 1.335558 h 1.335529 z" style="stroke-width:.095396"/><path id="path20" fill="#f4f4f4" d="M 8.9810299,10.141225 H 7.6454727 v 1.335558 h 1.3355572 z" style="stroke-width:.095396"/><path id="path23" fill="#f4f4f4" d="m 12.987674,10.141225 h -1.335547 v 1.335558 h 1.335547 z" style="stroke-width:.095396"/><path id="path24" fill="#f4f4f4" d="m 14.323223,10.141225 h -1.335549 v 1.335558 h 1.335549 z" style="stroke-width:.095396"/><path id="path28" fill="#f4f4f4" d="m 7.6454727,11.476783 h -1.335529 v 1.335548 h 1.335529 z" style="stroke-width:.095396"/><path id="path29" fill="#f5f" d="M 8.9810299,11.476783 H 7.6454727 v 1.335548 h 1.3355572 z" style="fill:#505050;fill-opacity:1;stroke-width:.095396"/><path id="path32" fill="#f4f4f4" d="m 12.987674,11.476783 h -1.335547 v 1.335548 h 1.335547 z" style="stroke-width:.095396"/><path id="path33" fill="#f5f" d="m 14.323223,11.476783 h -1.335549 v 1.335548 h 1.335549 z" style="fill:#505050;fill-opacity:1;stroke-width:.095396"/><g id="g3"><path id="path6-1" fill="#33d" d="M 8.9810299,7.4701295 7.6454727,7.47012 v 1.3355579 h 1.3355572 z" style="fill:#333;fill-opacity:1;stroke-width:.095396"/><path id="path8-1" fill="#33d" d="m 11.652136,7.47012 -1.335558,9.5e-6 v 1.3355484 h 1.335549 z" style="fill:#333;fill-opacity:1;stroke-width:.095396"/><path id="path35" fill="#33d" d="m 3.6388382,12.812331 -1.3355478,-3.8e-5 v 1.335547 h 1.3355478 z" style="fill:#333;fill-opacity:1;stroke-width:.095396"/><path id="path36" fill="#33d" d="m 4.9743862,12.812331 h -1.335548 v 1.335509 h 1.335548 z" style="fill:#333;fill-opacity:1;stroke-width:.095396"/><path id="path37" fill="#33d" d="M 6.3099437,12.812331 H 4.9743862 v 1.335509 h 1.3355575 z" style="fill:#333;fill-opacity:1;stroke-width:.095396"/><path id="path38" fill="#33d" d="m 7.6454727,12.812331 h -1.335529 v 1.335509 h 1.335529 z" style="fill:#333;fill-opacity:1;stroke-width:.095396"/><path id="path39" fill="#33d" d="M 8.9810299,12.812331 H 7.6454727 v 1.335509 h 1.3355572 z" style="fill:#333;fill-opacity:1;stroke-width:.095396"/><path id="path40" fill="#33d" d="M 10.316578,12.812331 H 8.9810299 v 1.335509 h 1.3355481 z" style="fill:#333;fill-opacity:1;stroke-width:.095396"/><path id="path41" fill="#33d" d="m 11.652127,12.812331 h -1.335549 v 1.335509 h 1.335549 z" style="fill:#333;fill-opacity:1;stroke-width:.095396"/><path id="path42" fill="#33d" d="m 12.987674,12.812331 h -1.335547 v 1.335509 h 1.335547 z" style="fill:#333;fill-opacity:1;stroke-width:.095396"/><path id="path43" fill="#33d" d="m 14.323223,12.812331 h -1.335549 v 1.335509 h 1.335549 z" style="fill:#333;fill-opacity:1;stroke-width:.095396"/><path id="path44" fill="#33d" d="m 15.658769,12.812331 h -1.335546 v 1.335509 h 1.335546 z" style="fill:#333;fill-opacity:1;stroke-width:.095396"/><path id="path45" fill="#33d" d="m 16.994319,12.812293 -1.33555,3.8e-5 v 1.335509 h 1.33555 z" style="fill:#333;fill-opacity:1;stroke-width:.095396"/><path id="path46" fill="#33d" d="M 6.3099437,14.14784 H 4.9743862 l 9.6e-6,1.335568 h 1.3355479 z" style="fill:#333;fill-opacity:1;stroke-width:.095396"/><path id="path49" fill="#33d" d="m 14.323223,14.14784 h -1.335549 v 1.335568 h 1.335549 z" style="fill:#333;fill-opacity:1;stroke-width:.095396"/><path id="path50" fill="#33d" d="M 6.3099437,15.483408 H 4.9743958 v 1.335547 h 1.3355479 z" style="fill:#333;fill-opacity:1;stroke-width:.095396"/><path id="path53" fill="#33d" d="m 14.323223,15.483408 h -1.335549 v 1.335547 h 1.335549 z" style="fill:#333;fill-opacity:1;stroke-width:.095396"/></g><g id="g1"><path id="path1-88" fill="#55f" d="M 6.3099437,4.7990241 H 4.9743958 V 6.134572 h 1.3355479 z" style="fill:#969696;fill-opacity:1;stroke-width:.095396"/><path id="path2-2" fill="#55f" d="M 14.323223,4.7990241 H 12.987674 V 6.134572 h 1.335549 z" style="fill:#969696;fill-opacity:1;stroke-width:.095396"/><path id="path3-4" fill="#55f" d="m 7.6454727,6.134572 h -1.335529 l -1.9e-5,1.335548 h 1.335548 z" style="fill:#969696;fill-opacity:1;stroke-width:.095396"/><path id="path4-5" fill="#55f" d="M 12.987674,6.134572 H 11.652136 V 7.47012 h 1.335538 z" style="fill:#969696;fill-opacity:1;stroke-width:.095396"/><path id="path5-5" fill="#55f" d="m 7.6454727,7.47012 h -1.335548 v 1.3355579 h 1.335548 z" style="fill:#969696;fill-opacity:1;stroke-width:.095396"/><path id="path7-7" fill="#55f" d="M 10.316578,7.4701295 H 8.9810299 v 1.3355484 h 1.3355481 z" style="fill:#969696;fill-opacity:1;stroke-width:.095396"/><path id="path9-1" fill="#55f" d="m 12.987674,7.47012 h -1.335538 l -9e-6,1.3355579 h 1.335547 z" style="fill:#969696;fill-opacity:1;stroke-width:.095396"/><path id="path10-5" fill="#55f" d="M 6.3099247,8.8056779 H 4.9743958 v 1.3355471 h 1.3355479 z" style="fill:#969696;fill-opacity:1;stroke-width:.095396"/><path id="path11-2" fill="#55f" d="m 7.6454727,8.8056779 h -1.335548 l 1.9e-5,1.3355471 h 1.335529 z" style="fill:#969696;fill-opacity:1;stroke-width:.095396"/><path id="path12-7" fill="#55f" d="M 8.9810299,8.8056779 H 7.6454727 v 1.3355471 h 1.3355572 z" style="fill:#969696;fill-opacity:1;stroke-width:.095396"/><path id="path13-6" fill="#55f" d="M 10.316578,8.8056779 H 8.9810299 v 1.3355471 h 1.3355481 z" style="fill:#969696;fill-opacity:1;stroke-width:.095396"/><path id="path14-1" fill="#55f" d="m 11.652127,8.8056779 h -1.335549 v 1.3355471 h 1.335549 z" style="fill:#969696;fill-opacity:1;stroke-width:.095396"/><path id="path15-4" fill="#55f" d="m 12.987674,8.8056779 h -1.335547 v 1.3355471 h 1.335547 z" style="fill:#969696;fill-opacity:1;stroke-width:.095396"/><path id="path16-2" fill="#55f" d="m 14.323223,8.8056779 h -1.335549 v 1.3355471 h 1.335549 z" style="fill:#969696;fill-opacity:1;stroke-width:.095396"/><path id="path17" fill="#55f" d="m 4.9743958,10.141225 -1.3355576,9e-6 v 1.335549 h 1.335548 z" style="fill:#969696;fill-opacity:1;stroke-width:.095396"/><path id="path18" fill="#55f" d="M 6.3099437,10.141225 H 4.9743958 l -9.6e-6,1.335558 h 1.3355575 z" style="fill:#969696;fill-opacity:1;stroke-width:.095396"/><path id="path21" fill="#55f" d="M 10.316578,10.141225 H 8.9810299 v 1.335558 h 1.3355481 z" style="fill:#969696;fill-opacity:1;stroke-width:.095396"/><path id="path22" fill="#55f" d="m 11.652127,10.141225 h -1.335549 v 1.335558 h 1.335549 z" style="fill:#969696;fill-opacity:1;stroke-width:.095396"/><path id="path25" fill="#55f" d="m 15.658769,10.141234 -1.335546,-9e-6 v 1.335558 h 1.335546 z" style="fill:#969696;fill-opacity:1;stroke-width:.095396"/><path id="path26" fill="#55f" d="m 4.9743862,11.476783 h -1.335548 v 1.335548 h 1.335548 z" style="fill:#969696;fill-opacity:1;stroke-width:.095396"/><path id="path27" fill="#55f" d="M 6.3099437,11.476783 H 4.9743862 v 1.335548 h 1.3355575 z" style="fill:#969696;fill-opacity:1;stroke-width:.095396"/><path id="path30" fill="#55f" d="M 10.316578,11.476783 H 8.9810299 v 1.335548 h 1.3355481 z" style="fill:#969696;fill-opacity:1;stroke-width:.095396"/><path id="path31" fill="#55f" d="m 11.652127,11.476783 h -1.335549 v 1.335548 h 1.335549 z" style="fill:#969696;fill-opacity:1;stroke-width:.095396"/><path id="path34" fill="#55f" d="m 15.658769,11.476783 h -1.335546 v 1.335548 h 1.335546 z" style="fill:#969696;fill-opacity:1;stroke-width:.095396"/><path id="path47" fill="#55f" d="M 8.9810299,14.14784 H 7.6454727 l 9e-6,1.335568 h 1.3355482 z" style="fill:#969696;fill-opacity:1;stroke-width:.095396"/><path id="path48" fill="#55f" d="m 11.652127,14.14784 h -1.335549 v 1.335568 h 1.335549 z" style="fill:#969696;fill-opacity:1;stroke-width:.095396"/><path id="path51" fill="#55f" d="M 8.9810299,15.483408 H 7.6454817 v 1.335547 h 1.3355482 z" style="fill:#969696;fill-opacity:1;stroke-width:.095396"/><path id="path52" fill="#55f" d="m 11.652127,15.483408 h -1.335549 v 1.335547 h 1.335549 z" style="fill:#969696;fill-opacity:1;stroke-width:.095396"/><path id="path54" fill="#55f" d="M 8.9810299,16.818955 H 7.6454817 v 1.335548 h 1.3355482 z" style="fill:#969696;fill-opacity:1;stroke-width:.095396"/><path id="path55" fill="#55f" d="m 11.652127,16.818955 h -1.335549 v 1.335548 h 1.335549 z" style="fill:#969696;fill-opacity:1;stroke-width:.095396"/><path id="path56" fill="#55f" d="m 7.6454817,18.154503 h -1.335557 v 1.335548 h 1.335548 z" style="fill:#969696;fill-opacity:1;stroke-width:.095396"/><path id="path57" fill="#55f" d="M 8.9810299,18.154503 H 7.6454817 l -9e-6,1.335548 h 1.3355572 z" style="fill:#969696;fill-opacity:1;stroke-width:.095396"/><path id="path58" fill="#55f" d="m 11.652127,18.154503 h -1.335549 v 1.335548 h 1.335549 z" style="fill:#969696;fill-opacity:1;stroke-width:.095396"/><path id="path59" fill="#55f" d="m 12.987674,18.154503 h -1.335547 v 1.335548 h 1.335547 z" style="fill:#969696;fill-opacity:1;stroke-width:.095396"/></g><path id="path60" fill="#f9f9fb" d="m 36.168971,7.8517051 h -0.667774 v 0.667774 h 0.667774 z" style="fill:#333;fill-opacity:1;stroke:none;stroke-width:.095396;stroke-opacity:1"/><path id="path61" fill="#f9f9fb" d="m 36.836745,7.8517051 h -0.667774 v 0.667774 h 0.667774 z" style="fill:#333;fill-opacity:1;stroke:none;stroke-width:.095396;stroke-opacity:1"/><path id="path62" fill="#f9f9fb" d="m 39.507841,7.8517051 h -0.667774 v 0.667774 h 0.667774 z" style="fill:#333;fill-opacity:1;stroke:none;stroke-width:.095396;stroke-opacity:1"/><path id="path63" fill="#f9f9fb" d="m 40.175614,7.8517051 h -0.667773 v 0.667774 h 0.667773 z" style="fill:#333;fill-opacity:1;stroke:none;stroke-width:.095396;stroke-opacity:1"/><path id="path64" fill="#f9f9fb" d="m 47.521129,7.8517051 h -0.667775 v 0.667774 h 0.667775 z" style="fill:#333;fill-opacity:1;stroke:none;stroke-width:.095396;stroke-opacity:1"/><path id="path65" fill="#f9f9fb" d="m 48.188903,7.8517051 h -0.667774 v 0.667774 h 0.667774 z" style="fill:#333;fill-opacity:1;stroke:none;stroke-width:.095396;stroke-opacity:1"/><path id="path66" fill="#f9f9fb" d="m 48.856676,7.8517051 h -0.667773 v 0.667774 h 0.667773 z" style="fill:#333;fill-opacity:1;stroke:none;stroke-width:.095396;stroke-opacity:1"/><path id="path67" fill="#f9f9fb" d="m 49.524451,7.8517051 h -0.667775 v 0.667774 h 0.667775 z" style="fill:#333;fill-opacity:1;stroke:none;stroke-width:.095396;stroke-opacity:1"/><path id="path68" fill="#f9f9fb" d="m 36.168971,8.5194791 h -0.667774 v 0.6677738 h 0.667774 z" style="fill:#333;fill-opacity:1;stroke:none;stroke-width:.095396;stroke-opacity:1"/><path id="path69" fill="#f9f9fb" d="m 36.836745,8.5194791 h -0.667774 v 0.6677738 h 0.667774 z" style="fill:#333;fill-opacity:1;stroke:none;stroke-width:.095396;stroke-opacity:1"/><path id="path70" fill="#f9f9fb" d="m 39.507841,8.5194791 h -0.667774 v 0.6677738 h 0.667774 z" style="fill:#333;fill-opacity:1;stroke:none;stroke-width:.095396;stroke-opacity:1"/><path id="path71" fill="#f9f9fb" d="m 40.175614,8.5194791 h -0.667773 v 0.6677738 h 0.667773 z" style="fill:#333;fill-opacity:1;stroke:none;stroke-width:.095396;stroke-opacity:1"/><path id="path72" fill="#f9f9fb" d="m 48.856676,8.5194791 h -0.667773 v 0.6677738 h 0.667773 z" style="fill:#333;fill-opacity:1;stroke:none;stroke-width:.095396;stroke-opacity:1"/><path id="path73" fill="#f9f9fb" d="m 49.524451,8.5194791 h -0.667775 v 0.6677738 h 0.667775 z" style="fill:#333;fill-opacity:1;stroke:none;stroke-width:.095396;stroke-opacity:1"/><path id="path74" fill="#f9f9fb" d="m 36.168971,9.1872529 h -0.667774 v 0.6677736 h 0.667774 z" style="fill:#333;fill-opacity:1;stroke:none;stroke-width:.095396;stroke-opacity:1"/><path id="path75" fill="#f9f9fb" d="m 36.836745,9.1872529 h -0.667774 v 0.6677736 h 0.667774 z" style="fill:#333;fill-opacity:1;stroke:none;stroke-width:.095396;stroke-opacity:1"/><path id="path76" fill="#f9f9fb" d="m 48.856676,9.1872529 h -0.667773 v 0.6677736 h 0.667773 z" style="fill:#333;fill-opacity:1;stroke:none;stroke-width:.095396;stroke-opacity:1"/><path id="path77" fill="#f9f9fb" d="m 49.524451,9.1872529 h -0.667775 v 0.6677736 h 0.667775 z" style="fill:#333;fill-opacity:1;stroke:none;stroke-width:.095396;stroke-opacity:1"/><path id="path78" fill="#f9f9fb" d="m 36.168971,9.8550265 h -0.667774 v 0.6677745 h 0.667774 z" style="fill:#333;fill-opacity:1;stroke:none;stroke-width:.095396;stroke-opacity:1"/><path id="path79" fill="#f9f9fb" d="m 36.836745,9.8550265 h -0.667774 v 0.6677745 h 0.667774 z" style="fill:#333;fill-opacity:1;stroke:none;stroke-width:.095396;stroke-opacity:1"/><path id="path80" fill="#f9f9fb" d="m 48.856676,9.8550265 h -0.667773 v 0.6677745 h 0.667773 z" style="fill:#333;fill-opacity:1;stroke:none;stroke-width:.095396;stroke-opacity:1"/><path id="path81" fill="#f9f9fb" d="m 49.524451,9.8550265 h -0.667775 v 0.6677745 h 0.667775 z" style="fill:#333;fill-opacity:1;stroke:none;stroke-width:.095396;stroke-opacity:1"/><path id="path82" fill="#f9f9fb" d="m 36.168971,10.522801 h -0.667774 v 0.667774 h 0.667774 z" style="fill:#333;fill-opacity:1;stroke:none;stroke-width:.095396;stroke-opacity:1"/><path id="path83" fill="#f9f9fb" d="m 36.836745,10.522801 h -0.667774 v 0.667774 h 0.667774 z" style="fill:#333;fill-opacity:1;stroke:none;stroke-width:.095396;stroke-opacity:1"/><path id="path84" fill="#f9f9fb" d="m 48.856676,10.522801 h -0.667773 v 0.667774 h 0.667773 z" style="fill:#333;fill-opacity:1;stroke:none;stroke-width:.095396;stroke-opacity:1"/><path id="path85" fill="#f9f9fb" d="m 49.524451,10.522801 h -0.667775 v 0.667774 h 0.667775 z" style="fill:#333;fill-opacity:1;stroke:none;stroke-width:.095396;stroke-opacity:1"/><path id="path86" fill="#f9f9fb" d="m 22.813491,11.190575 h -0.667774 v 0.667774 h 0.667774 z" style="fill:#333;fill-opacity:1;stroke:none;stroke-width:.095396;stroke-opacity:1"/><path id="path87" fill="#f9f9fb" d="m 23.481265,11.190575 h -0.667774 v 0.667774 h 0.667774 z" style="fill:#333;fill-opacity:1;stroke:none;stroke-width:.095396;stroke-opacity:1"/><path id="path88" fill="#f9f9fb" d="m 24.816814,11.190575 h -0.667776 v 0.667774 h 0.667776 z" style="fill:#333;fill-opacity:1;stroke:none;stroke-width:.095396;stroke-opacity:1"/><path id="path89" fill="#f9f9fb" d="m 25.484587,11.190575 h -0.667773 v 0.667774 h 0.667773 z" style="fill:#333;fill-opacity:1;stroke:none;stroke-width:.095396;stroke-opacity:1"/><path id="path90" fill="#f9f9fb" d="m 28.155682,11.190575 h -0.667773 v 0.667774 h 0.667773 z" style="fill:#333;fill-opacity:1;stroke:none;stroke-width:.095396;stroke-opacity:1"/><path id="path91" fill="#f9f9fb" d="m 28.823457,11.190575 h -0.667775 v 0.667774 h 0.667775 z" style="fill:#333;fill-opacity:1;stroke:none;stroke-width:.095396;stroke-opacity:1"/><path id="path92" fill="#f9f9fb" d="m 29.491231,11.190575 h -0.667774 v 0.667774 h 0.667774 z" style="fill:#333;fill-opacity:1;stroke:none;stroke-width:.095396;stroke-opacity:1"/><path id="path93" fill="#f9f9fb" d="m 30.159005,11.190575 h -0.667774 v 0.667774 h 0.667774 z" style="fill:#333;fill-opacity:1;stroke:none;stroke-width:.095396;stroke-opacity:1"/><path id="path94" fill="#f9f9fb" d="m 33.497875,11.190575 h -0.667774 v 0.667774 h 0.667774 z" style="fill:#333;fill-opacity:1;stroke:none;stroke-width:.095396;stroke-opacity:1"/><path id="path95" fill="#f9f9fb" d="m 34.165649,11.190575 h -0.667774 v 0.667774 h 0.667774 z" style="fill:#333;fill-opacity:1;stroke:none;stroke-width:.095396;stroke-opacity:1"/><path id="path96" fill="#f9f9fb" d="m 34.833423,11.190575 h -0.667774 v 0.667774 h 0.667774 z" style="fill:#333;fill-opacity:1;stroke:none;stroke-width:.095396;stroke-opacity:1"/><path id="path97" fill="#f9f9fb" d="m 36.168971,11.190575 h -0.667774 v 0.667774 h 0.667774 z" style="fill:#333;fill-opacity:1;stroke:none;stroke-width:.095396;stroke-opacity:1"/><path id="path98" fill="#f9f9fb" d="m 36.836745,11.190575 h -0.667774 v 0.667774 h 0.667774 z" style="fill:#333;fill-opacity:1;stroke:none;stroke-width:.095396;stroke-opacity:1"/><path id="path99" fill="#f9f9fb" d="m 38.172293,11.190575 h -0.667774 v 0.667774 h 0.667774 z" style="fill:#333;fill-opacity:1;stroke:none;stroke-width:.095396;stroke-opacity:1"/><path id="path100" fill="#f9f9fb" d="m 38.840067,11.190575 h -0.667774 v 0.667774 h 0.667774 z" style="fill:#333;fill-opacity:1;stroke:none;stroke-width:.095396;stroke-opacity:1"/><path id="path101" fill="#f9f9fb" d="m 39.507841,11.190575 h -0.667774 v 0.667774 h 0.667774 z" style="fill:#333;fill-opacity:1;stroke:none;stroke-width:.095396;stroke-opacity:1"/><path id="path102" fill="#f9f9fb" d="m 40.175614,11.190575 h -0.667773 v 0.667774 h 0.667773 z" style="fill:#333;fill-opacity:1;stroke:none;stroke-width:.095396;stroke-opacity:1"/><path id="path103" fill="#f9f9fb" d="m 43.514485,11.190575 h -0.667774 v 0.667774 h 0.667774 z" style="fill:#333;fill-opacity:1;stroke:none;stroke-width:.095396;stroke-opacity:1"/><path id="path104" fill="#f9f9fb" d="m 44.182258,11.190575 h -0.667773 v 0.667774 h 0.667773 z" style="fill:#333;fill-opacity:1;stroke:none;stroke-width:.095396;stroke-opacity:1"/><path id="path105" fill="#f9f9fb" d="m 44.850033,11.190575 h -0.667775 v 0.667774 h 0.667775 z" style="fill:#333;fill-opacity:1;stroke:none;stroke-width:.095396;stroke-opacity:1"/><path id="path106" fill="#f9f9fb" d="m 45.517807,11.190575 h -0.667774 v 0.667774 h 0.667774 z" style="fill:#333;fill-opacity:1;stroke:none;stroke-width:.095396;stroke-opacity:1"/><path id="path107" fill="#f9f9fb" d="m 48.856676,11.190575 h -0.667773 v 0.667774 h 0.667773 z" style="fill:#333;fill-opacity:1;stroke:none;stroke-width:.095396;stroke-opacity:1"/><path id="path108" fill="#f9f9fb" d="m 49.524451,11.190575 h -0.667775 v 0.667774 h 0.667775 z" style="fill:#333;fill-opacity:1;stroke:none;stroke-width:.095396;stroke-opacity:1"/><path id="path109" fill="#f9f9fb" d="m 52.863321,11.190575 h -0.667774 v 0.667774 h 0.667774 z" style="fill:#333;fill-opacity:1;stroke:none;stroke-width:.095396;stroke-opacity:1"/><path id="path110" fill="#f9f9fb" d="m 53.531094,11.190575 h -0.667773 v 0.667774 h 0.667773 z" style="fill:#333;fill-opacity:1;stroke:none;stroke-width:.095396;stroke-opacity:1"/><path id="path111" fill="#f9f9fb" d="m 54.198868,11.190575 h -0.667774 v 0.667774 h 0.667774 z" style="fill:#333;fill-opacity:1;stroke:none;stroke-width:.095396;stroke-opacity:1"/><path id="path112" fill="#f9f9fb" d="m 54.866643,11.190575 h -0.667775 v 0.667774 h 0.667775 z" style="fill:#333;fill-opacity:1;stroke:none;stroke-width:.095396;stroke-opacity:1"/><path id="path113" fill="#f9f9fb" d="m 55.534417,11.190575 h -0.667774 v 0.667774 h 0.667774 z" style="fill:#333;fill-opacity:1;stroke:none;stroke-width:.095396;stroke-opacity:1"/><path id="path114" fill="#f9f9fb" d="m 22.813491,11.858349 h -0.667774 v 0.667773 h 0.667774 z" style="fill:#333;fill-opacity:1;stroke:none;stroke-width:.095396;stroke-opacity:1"/><path id="path115" fill="#f9f9fb" d="m 23.481265,11.858349 h -0.667774 v 0.667773 h 0.667774 z" style="fill:#333;fill-opacity:1;stroke:none;stroke-width:.095396;stroke-opacity:1"/><path id="path116" fill="#f9f9fb" d="m 24.149038,11.858349 h -0.667773 v 0.667773 h 0.667773 z" style="fill:#333;fill-opacity:1;stroke:none;stroke-width:.095396;stroke-opacity:1"/><path id="path117" fill="#f9f9fb" d="m 26.152361,11.858349 h -0.667774 v 0.667773 h 0.667774 z" style="fill:#333;fill-opacity:1;stroke:none;stroke-width:.095396;stroke-opacity:1"/><path id="path118" fill="#f9f9fb" d="m 27.487909,11.858349 h -0.667774 v 0.667773 h 0.667774 z" style="fill:#333;fill-opacity:1;stroke:none;stroke-width:.095396;stroke-opacity:1"/><path id="path119" fill="#f9f9fb" d="m 28.155682,11.858349 h -0.667773 v 0.667773 h 0.667773 z" style="fill:#333;fill-opacity:1;stroke:none;stroke-width:.095396;stroke-opacity:1"/><path id="path120" fill="#f9f9fb" d="m 30.159005,11.858349 h -0.667774 v 0.667773 h 0.667774 z" style="fill:#333;fill-opacity:1;stroke:none;stroke-width:.095396;stroke-opacity:1"/><path id="path121" fill="#f9f9fb" d="m 30.826779,11.858349 h -0.667774 v 0.667773 h 0.667774 z" style="fill:#333;fill-opacity:1;stroke:none;stroke-width:.095396;stroke-opacity:1"/><path id="path122" fill="#f9f9fb" d="m 32.162327,11.858349 h -0.667774 v 0.667773 h 0.667774 z" style="fill:#333;fill-opacity:1;stroke:none;stroke-width:.095396;stroke-opacity:1"/><path id="path123" fill="#f9f9fb" d="m 32.830101,11.858349 h -0.667774 v 0.667773 h 0.667774 z" style="fill:#333;fill-opacity:1;stroke:none;stroke-width:.095396;stroke-opacity:1"/><path id="path124" fill="#f9f9fb" d="m 35.501197,11.858349 h -0.667774 v 0.667773 h 0.667774 z" style="fill:#333;fill-opacity:1;stroke:none;stroke-width:.095396;stroke-opacity:1"/><path id="path125" fill="#f9f9fb" d="m 36.168971,11.858349 h -0.667774 v 0.667773 h 0.667774 z" style="fill:#333;fill-opacity:1;stroke:none;stroke-width:.095396;stroke-opacity:1"/><path id="path126" fill="#f9f9fb" d="m 36.836745,11.858349 h -0.667774 v 0.667773 h 0.667774 z" style="fill:#333;fill-opacity:1;stroke:none;stroke-width:.095396;stroke-opacity:1"/><path id="path127" fill="#f9f9fb" d="m 39.507841,11.858349 h -0.667774 v 0.667773 h 0.667774 z" style="fill:#333;fill-opacity:1;stroke:none;stroke-width:.095396;stroke-opacity:1"/><path id="path128" fill="#f9f9fb" d="m 40.175614,11.858349 h -0.667773 v 0.667773 h 0.667773 z" style="fill:#333;fill-opacity:1;stroke:none;stroke-width:.095396;stroke-opacity:1"/><path id="path129" fill="#f9f9fb" d="m 42.846711,11.858349 h -0.667775 v 0.667773 h 0.667775 z" style="fill:#333;fill-opacity:1;stroke:none;stroke-width:.095396;stroke-opacity:1"/><path id="path130" fill="#f9f9fb" d="m 43.514485,11.858349 h -0.667774 v 0.667773 h 0.667774 z" style="fill:#333;fill-opacity:1;stroke:none;stroke-width:.095396;stroke-opacity:1"/><path id="path131" fill="#f9f9fb" d="m 46.185581,11.858349 h -0.667774 v 0.667773 h 0.667774 z" style="fill:#333;fill-opacity:1;stroke:none;stroke-width:.095396;stroke-opacity:1"/><path id="path132" fill="#f9f9fb" d="m 48.856676,11.858349 h -0.667773 v 0.667773 h 0.667773 z" style="fill:#333;fill-opacity:1;stroke:none;stroke-width:.095396;stroke-opacity:1"/><path id="path133" fill="#f9f9fb" d="m 49.524451,11.858349 h -0.667775 v 0.667773 h 0.667775 z" style="fill:#333;fill-opacity:1;stroke:none;stroke-width:.095396;stroke-opacity:1"/><path id="path134" fill="#f9f9fb" d="m 52.195547,11.858349 h -0.667775 v 0.667773 h 0.667775 z" style="fill:#333;fill-opacity:1;stroke:none;stroke-width:.095396;stroke-opacity:1"/><path id="path135" fill="#f9f9fb" d="m 52.863321,11.858349 h -0.667774 v 0.667773 h 0.667774 z" style="fill:#333;fill-opacity:1;stroke:none;stroke-width:.095396;stroke-opacity:1"/><path id="path136" fill="#f9f9fb" d="m 55.534417,11.858349 h -0.667774 v 0.667773 h 0.667774 z" style="fill:#333;fill-opacity:1;stroke:none;stroke-width:.095396;stroke-opacity:1"/><path id="path137" fill="#f9f9fb" d="m 56.20219,11.858349 h -0.667773 v 0.667773 h 0.667773 z" style="fill:#333;fill-opacity:1;stroke:none;stroke-width:.095396;stroke-opacity:1"/><path id="path138" fill="#f9f9fb" d="m 22.813491,12.526122 h -0.667774 v 0.667774 h 0.667774 z" style="fill:#333;fill-opacity:1;stroke:none;stroke-width:.095396;stroke-opacity:1"/><path id="path139" fill="#f9f9fb" d="m 23.481265,12.526122 h -0.667774 v 0.667774 h 0.667774 z" style="fill:#333;fill-opacity:1;stroke:none;stroke-width:.095396;stroke-opacity:1"/><path id="path140" fill="#f9f9fb" d="m 30.159005,12.526122 h -0.667774 v 0.667774 h 0.667774 z" style="fill:#333;fill-opacity:1;stroke:none;stroke-width:.095396;stroke-opacity:1"/><path id="path141" fill="#f9f9fb" d="m 30.826779,12.526122 h -0.667774 v 0.667774 h 0.667774 z" style="fill:#333;fill-opacity:1;stroke:none;stroke-width:.095396;stroke-opacity:1"/><path id="path142" fill="#f9f9fb" d="m 32.162327,12.526122 h -0.667774 v 0.667774 h 0.667774 z" style="fill:#333;fill-opacity:1;stroke:none;stroke-width:.095396;stroke-opacity:1"/><path id="path143" fill="#f9f9fb" d="m 32.830101,12.526122 h -0.667774 v 0.667774 h 0.667774 z" style="fill:#333;fill-opacity:1;stroke:none;stroke-width:.095396;stroke-opacity:1"/><path id="path144" fill="#f9f9fb" d="m 36.168971,12.526122 h -0.667774 v 0.667774 h 0.667774 z" style="fill:#333;fill-opacity:1;stroke:none;stroke-width:.095396;stroke-opacity:1"/><path id="path145" fill="#f9f9fb" d="m 36.836745,12.526122 h -0.667774 v 0.667774 h 0.667774 z" style="fill:#333;fill-opacity:1;stroke:none;stroke-width:.095396;stroke-opacity:1"/><path id="path146" fill="#f9f9fb" d="m 39.507841,12.526122 h -0.667774 v 0.667774 h 0.667774 z" style="fill:#333;fill-opacity:1;stroke:none;stroke-width:.095396;stroke-opacity:1"/><path id="path147" fill="#f9f9fb" d="m 40.175614,12.526122 h -0.667773 v 0.667774 h 0.667773 z" style="fill:#333;fill-opacity:1;stroke:none;stroke-width:.095396;stroke-opacity:1"/><path id="path148" fill="#f9f9fb" d="m 42.846711,12.526122 h -0.667775 v 0.667774 h 0.667775 z" style="fill:#333;fill-opacity:1;stroke:none;stroke-width:.095396;stroke-opacity:1"/><path id="path149" fill="#f9f9fb" d="m 43.514485,12.526122 h -0.667774 v 0.667774 h 0.667774 z" style="fill:#333;fill-opacity:1;stroke:none;stroke-width:.095396;stroke-opacity:1"/><path id="path150" fill="#f9f9fb" d="m 48.856676,12.526122 h -0.667773 v 0.667774 h 0.667773 z" style="fill:#333;fill-opacity:1;stroke:none;stroke-width:.095396;stroke-opacity:1"/><path id="path151" fill="#f9f9fb" d="m 49.524451,12.526122 h -0.667775 v 0.667774 h 0.667775 z" style="fill:#333;fill-opacity:1;stroke:none;stroke-width:.095396;stroke-opacity:1"/><path id="path152" fill="#f9f9fb" d="m 52.195547,12.526122 h -0.667775 v 0.667774 h 0.667775 z" style="fill:#333;fill-opacity:1;stroke:none;stroke-width:.095396;stroke-opacity:1"/><path id="path153" fill="#f9f9fb" d="m 52.863321,12.526122 h -0.667774 v 0.667774 h 0.667774 z" style="fill:#333;fill-opacity:1;stroke:none;stroke-width:.095396;stroke-opacity:1"/><path id="path154" fill="#f9f9fb" d="m 55.534417,12.526122 h -0.667774 v 0.667774 h 0.667774 z" style="fill:#333;fill-opacity:1;stroke:none;stroke-width:.095396;stroke-opacity:1"/><path id="path155" fill="#f9f9fb" d="m 56.20219,12.526122 h -0.667773 v 0.667774 h 0.667773 z" style="fill:#333;fill-opacity:1;stroke:none;stroke-width:.095396;stroke-opacity:1"/><path id="path156" fill="#f9f9fb" d="m 22.813491,13.193896 h -0.667774 v 0.667775 h 0.667774 z" style="fill:#333;fill-opacity:1;stroke:none;stroke-width:.095396;stroke-opacity:1"/><path id="path157" fill="#f9f9fb" d="m 23.481265,13.193896 h -0.667774 v 0.667775 h 0.667774 z" style="fill:#333;fill-opacity:1;stroke:none;stroke-width:.095396;stroke-opacity:1"/><path id="path158" fill="#f9f9fb" d="m 27.487909,13.193896 h -0.667774 v 0.667775 h 0.667774 z" style="fill:#333;fill-opacity:1;stroke:none;stroke-width:.095396;stroke-opacity:1"/><path id="path159" fill="#f9f9fb" d="m 28.155682,13.193896 h -0.667773 v 0.667775 h 0.667773 z" style="fill:#333;fill-opacity:1;stroke:none;stroke-width:.095396;stroke-opacity:1"/><path id="path160" fill="#f9f9fb" d="m 28.823457,13.193896 h -0.667775 v 0.667775 h 0.667775 z" style="fill:#333;fill-opacity:1;stroke:none;stroke-width:.095396;stroke-opacity:1"/><path id="path161" fill="#f9f9fb" d="m 30.159005,13.193896 h -0.667774 v 0.667775 h 0.667774 z" style="fill:#333;fill-opacity:1;stroke:none;stroke-width:.095396;stroke-opacity:1"/><path id="path162" fill="#f9f9fb" d="m 30.826779,13.193896 h -0.667774 v 0.667775 h 0.667774 z" style="fill:#333;fill-opacity:1;stroke:none;stroke-width:.095396;stroke-opacity:1"/><path id="path163" fill="#f9f9fb" d="m 32.162327,13.193896 h -0.667774 v 0.667775 h 0.667774 z" style="fill:#333;fill-opacity:1;stroke:none;stroke-width:.095396;stroke-opacity:1"/><path id="path164" fill="#f9f9fb" d="m 32.830101,13.193896 h -0.667774 v 0.667775 h 0.667774 z" style="fill:#333;fill-opacity:1;stroke:none;stroke-width:.095396;stroke-opacity:1"/><path id="path165" fill="#f9f9fb" d="m 36.168971,13.193896 h -0.667774 v 0.667775 h 0.667774 z" style="fill:#333;fill-opacity:1;stroke:none;stroke-width:.095396;stroke-opacity:1"/><path id="path166" fill="#f9f9fb" d="m 36.836745,13.193896 h -0.667774 v 0.667775 h 0.667774 z" style="fill:#333;fill-opacity:1;stroke:none;stroke-width:.095396;stroke-opacity:1"/><path id="path167" fill="#f9f9fb" d="m 39.507841,13.193896 h -0.667774 v 0.667775 h 0.667774 z" style="fill:#333;fill-opacity:1;stroke:none;stroke-width:.095396;stroke-opacity:1"/><path id="path168" fill="#f9f9fb" d="m 40.175614,13.193896 h -0.667773 v 0.667775 h 0.667773 z" style="fill:#333;fill-opacity:1;stroke:none;stroke-width:.095396;stroke-opacity:1"/><path id="path169" fill="#f9f9fb" d="m 42.846711,13.193896 h -0.667775 v 0.667775 h 0.667775 z" style="fill:#333;fill-opacity:1;stroke:none;stroke-width:.095396;stroke-opacity:1"/><path id="path170" fill="#f9f9fb" d="m 43.514485,13.193896 h -0.667774 v 0.667775 h 0.667774 z" style="fill:#333;fill-opacity:1;stroke:none;stroke-width:.095396;stroke-opacity:1"/><path id="path171" fill="#f9f9fb" d="m 48.856676,13.193896 h -0.667773 v 0.667775 h 0.667773 z" style="fill:#333;fill-opacity:1;stroke:none;stroke-width:.095396;stroke-opacity:1"/><path id="path172" fill="#f9f9fb" d="m 49.524451,13.193896 h -0.667775 v 0.667775 h 0.667775 z" style="fill:#333;fill-opacity:1;stroke:none;stroke-width:.095396;stroke-opacity:1"/><path id="path173" fill="#f9f9fb" d="m 52.195547,13.193896 h -0.667775 v 0.667775 h 0.667775 z" style="fill:#333;fill-opacity:1;stroke:none;stroke-width:.095396;stroke-opacity:1"/><path id="path174" fill="#f9f9fb" d="m 52.863321,13.193896 h -0.667774 v 0.667775 h 0.667774 z" style="fill:#333;fill-opacity:1;stroke:none;stroke-width:.095396;stroke-opacity:1"/><path id="path175" fill="#f9f9fb" d="m 53.531094,13.193896 h -0.667773 v 0.667775 h 0.667773 z" style="fill:#333;fill-opacity:1;stroke:none;stroke-width:.095396;stroke-opacity:1"/><path id="path176" fill="#f9f9fb" d="m 54.198868,13.193896 h -0.667774 v 0.667775 h 0.667774 z" style="fill:#333;fill-opacity:1;stroke:none;stroke-width:.095396;stroke-opacity:1"/><path id="path177" fill="#f9f9fb" d="m 54.866643,13.193896 h -0.667775 v 0.667775 h 0.667775 z" style="fill:#333;fill-opacity:1;stroke:none;stroke-width:.095396;stroke-opacity:1"/><path id="path178" fill="#f9f9fb" d="m 55.534417,13.193896 h -0.667774 v 0.667775 h 0.667774 z" style="fill:#333;fill-opacity:1;stroke:none;stroke-width:.095396;stroke-opacity:1"/><path id="path179" fill="#f9f9fb" d="m 56.20219,13.193896 h -0.667773 v 0.667775 h 0.667773 z" style="fill:#333;fill-opacity:1;stroke:none;stroke-width:.095396;stroke-opacity:1"/><path id="path180" fill="#f9f9fb" d="m 22.813491,13.861671 h -0.667774 v 0.667773 h 0.667774 z" style="fill:#333;fill-opacity:1;stroke:none;stroke-width:.095396;stroke-opacity:1"/><path id="path181" fill="#f9f9fb" d="m 23.481265,13.861671 h -0.667774 v 0.667773 h 0.667774 z" style="fill:#333;fill-opacity:1;stroke:none;stroke-width:.095396;stroke-opacity:1"/><path id="path182" fill="#f9f9fb" d="m 26.820135,13.861671 h -0.667774 v 0.667773 h 0.667774 z" style="fill:#333;fill-opacity:1;stroke:none;stroke-width:.095396;stroke-opacity:1"/><path id="path183" fill="#f9f9fb" d="m 27.487909,13.861671 h -0.667774 v 0.667773 h 0.667774 z" style="fill:#333;fill-opacity:1;stroke:none;stroke-width:.095396;stroke-opacity:1"/><path id="path184" fill="#f9f9fb" d="m 29.491231,13.861671 h -0.667774 v 0.667773 h 0.667774 z" style="fill:#333;fill-opacity:1;stroke:none;stroke-width:.095396;stroke-opacity:1"/><path id="path185" fill="#f9f9fb" d="m 30.159005,13.861671 h -0.667774 v 0.667773 h 0.667774 z" style="fill:#333;fill-opacity:1;stroke:none;stroke-width:.095396;stroke-opacity:1"/><path id="path186" fill="#f9f9fb" d="m 30.826779,13.861671 h -0.667774 v 0.667773 h 0.667774 z" style="fill:#333;fill-opacity:1;stroke:none;stroke-width:.095396;stroke-opacity:1"/><path id="path187" fill="#f9f9fb" d="m 32.162327,13.861671 h -0.667774 v 0.667773 h 0.667774 z" style="fill:#333;fill-opacity:1;stroke:none;stroke-width:.095396;stroke-opacity:1"/><path id="path188" fill="#f9f9fb" d="m 32.830101,13.861671 h -0.667774 v 0.667773 h 0.667774 z" style="fill:#333;fill-opacity:1;stroke:none;stroke-width:.095396;stroke-opacity:1"/><path id="path189" fill="#f9f9fb" d="m 36.168971,13.861671 h -0.667774 v 0.667773 h 0.667774 z" style="fill:#333;fill-opacity:1;stroke:none;stroke-width:.095396;stroke-opacity:1"/><path id="path190" fill="#f9f9fb" d="m 36.836745,13.861671 h -0.667774 v 0.667773 h 0.667774 z" style="fill:#333;fill-opacity:1;stroke:none;stroke-width:.095396;stroke-opacity:1"/><path id="path191" fill="#f9f9fb" d="m 39.507841,13.861671 h -0.667774 v 0.667773 h 0.667774 z" style="fill:#333;fill-opacity:1;stroke:none;stroke-width:.095396;stroke-opacity:1"/><path id="path192" fill="#f9f9fb" d="m 40.175614,13.861671 h -0.667773 v 0.667773 h 0.667773 z" style="fill:#333;fill-opacity:1;stroke:none;stroke-width:.095396;stroke-opacity:1"/><path id="path193" fill="#f9f9fb" d="m 42.846711,13.861671 h -0.667775 v 0.667773 h 0.667775 z" style="fill:#333;fill-opacity:1;stroke:none;stroke-width:.095396;stroke-opacity:1"/><path id="path194" fill="#f9f9fb" d="m 43.514485,13.861671 h -0.667774 v 0.667773 h 0.667774 z" style="fill:#333;fill-opacity:1;stroke:none;stroke-width:.095396;stroke-opacity:1"/><path id="path195" fill="#f9f9fb" d="m 48.856676,13.861671 h -0.667773 v 0.667773 h 0.667773 z" style="fill:#333;fill-opacity:1;stroke:none;stroke-width:.095396;stroke-opacity:1"/><path id="path196" fill="#f9f9fb" d="m 49.524451,13.861671 h -0.667775 v 0.667773 h 0.667775 z" style="fill:#333;fill-opacity:1;stroke:none;stroke-width:.095396;stroke-opacity:1"/><path id="path197" fill="#f9f9fb" d="m 52.195547,13.861671 h -0.667775 v 0.667773 h 0.667775 z" style="fill:#333;fill-opacity:1;stroke:none;stroke-width:.095396;stroke-opacity:1"/><path id="path198" fill="#f9f9fb" d="m 52.863321,13.861671 h -0.667774 v 0.667773 h 0.667774 z" style="fill:#333;fill-opacity:1;stroke:none;stroke-width:.095396;stroke-opacity:1"/><path id="path199" fill="#f9f9fb" d="m 22.813491,14.529444 h -0.667774 v 0.667774 h 0.667774 z" style="fill:#333;fill-opacity:1;stroke:none;stroke-width:.095396;stroke-opacity:1"/><path id="path200" fill="#f9f9fb" d="m 23.481265,14.529444 h -0.667774 v 0.667774 h 0.667774 z" style="fill:#333;fill-opacity:1;stroke:none;stroke-width:.095396;stroke-opacity:1"/><path id="path201" fill="#f9f9fb" d="m 26.820135,14.529444 h -0.667774 v 0.667774 h 0.667774 z" style="fill:#333;fill-opacity:1;stroke:none;stroke-width:.095396;stroke-opacity:1"/><path id="path202" fill="#f9f9fb" d="m 27.487909,14.529444 h -0.667774 v 0.667774 h 0.667774 z" style="fill:#333;fill-opacity:1;stroke:none;stroke-width:.095396;stroke-opacity:1"/><path id="path203" fill="#f9f9fb" d="m 30.159005,14.529444 h -0.667774 v 0.667774 h 0.667774 z" style="fill:#333;fill-opacity:1;stroke:none;stroke-width:.095396;stroke-opacity:1"/><path id="path204" fill="#f9f9fb" d="m 30.826779,14.529444 h -0.667774 v 0.667774 h 0.667774 z" style="fill:#333;fill-opacity:1;stroke:none;stroke-width:.095396;stroke-opacity:1"/><path id="path205" fill="#f9f9fb" d="m 32.162327,14.529444 h -0.667774 v 0.667774 h 0.667774 z" style="fill:#333;fill-opacity:1;stroke:none;stroke-width:.095396;stroke-opacity:1"/><path id="path206" fill="#f9f9fb" d="m 32.830101,14.529444 h -0.667774 v 0.667774 h 0.667774 z" style="fill:#333;fill-opacity:1;stroke:none;stroke-width:.095396;stroke-opacity:1"/><path id="path207" fill="#f9f9fb" d="m 36.168971,14.529444 h -0.667774 v 0.667774 h 0.667774 z" style="fill:#333;fill-opacity:1;stroke:none;stroke-width:.095396;stroke-opacity:1"/><path id="path208" fill="#f9f9fb" d="m 36.836745,14.529444 h -0.667774 v 0.667774 h 0.667774 z" style="fill:#333;fill-opacity:1;stroke:none;stroke-width:.095396;stroke-opacity:1"/><path id="path209" fill="#f9f9fb" d="m 39.507841,14.529444 h -0.667774 v 0.667774 h 0.667774 z" style="fill:#333;fill-opacity:1;stroke:none;stroke-width:.095396;stroke-opacity:1"/><path id="path210" fill="#f9f9fb" d="m 40.175614,14.529444 h -0.667773 v 0.667774 h 0.667773 z" style="fill:#333;fill-opacity:1;stroke:none;stroke-width:.095396;stroke-opacity:1"/><path id="path211" fill="#f9f9fb" d="m 42.846711,14.529444 h -0.667775 v 0.667774 h 0.667775 z" style="fill:#333;fill-opacity:1;stroke:none;stroke-width:.095396;stroke-opacity:1"/><path id="path212" fill="#f9f9fb" d="m 43.514485,14.529444 h -0.667774 v 0.667774 h 0.667774 z" style="fill:#333;fill-opacity:1;stroke:none;stroke-width:.095396;stroke-opacity:1"/><path id="path213" fill="#f9f9fb" d="m 48.856676,14.529444 h -0.667773 v 0.667774 h 0.667773 z" style="fill:#333;fill-opacity:1;stroke:none;stroke-width:.095396;stroke-opacity:1"/><path id="path214" fill="#f9f9fb" d="m 49.524451,14.529444 h -0.667775 v 0.667774 h 0.667775 z" style="fill:#333;fill-opacity:1;stroke:none;stroke-width:.095396;stroke-opacity:1"/><path id="path215" fill="#f9f9fb" d="m 52.195547,14.529444 h -0.667775 v 0.667774 h 0.667775 z" style="fill:#333;fill-opacity:1;stroke:none;stroke-width:.095396;stroke-opacity:1"/><path id="path216" fill="#f9f9fb" d="m 52.863321,14.529444 h -0.667774 v 0.667774 h 0.667774 z" style="fill:#333;fill-opacity:1;stroke:none;stroke-width:.095396;stroke-opacity:1"/><path id="path217" fill="#f9f9fb" d="m 22.813491,15.197218 h -0.667774 v 0.667775 h 0.667774 z" style="fill:#333;fill-opacity:1;stroke:none;stroke-width:.095396;stroke-opacity:1"/><path id="path218" fill="#f9f9fb" d="m 23.481265,15.197218 h -0.667774 v 0.667775 h 0.667774 z" style="fill:#333;fill-opacity:1;stroke:none;stroke-width:.095396;stroke-opacity:1"/><path id="path219" fill="#f9f9fb" d="m 26.820135,15.197218 h -0.667774 v 0.667775 h 0.667774 z" style="fill:#333;fill-opacity:1;stroke:none;stroke-width:.095396;stroke-opacity:1"/><path id="path220" fill="#f9f9fb" d="m 27.487909,15.197218 h -0.667774 v 0.667775 h 0.667774 z" style="fill:#333;fill-opacity:1;stroke:none;stroke-width:.095396;stroke-opacity:1"/><path id="path221" fill="#f9f9fb" d="m 30.159005,15.197218 h -0.667774 v 0.667775 h 0.667774 z" style="fill:#333;fill-opacity:1;stroke:none;stroke-width:.095396;stroke-opacity:1"/><path id="path222" fill="#f9f9fb" d="m 30.826779,15.197218 h -0.667774 v 0.667775 h 0.667774 z" style="fill:#333;fill-opacity:1;stroke:none;stroke-width:.095396;stroke-opacity:1"/><path id="path223" fill="#f9f9fb" d="m 32.162327,15.197218 h -0.667774 v 0.667775 h 0.667774 z" style="fill:#333;fill-opacity:1;stroke:none;stroke-width:.095396;stroke-opacity:1"/><path id="path224" fill="#f9f9fb" d="m 32.830101,15.197218 h -0.667774 v 0.667775 h 0.667774 z" style="fill:#333;fill-opacity:1;stroke:none;stroke-width:.095396;stroke-opacity:1"/><path id="path225" fill="#f9f9fb" d="m 36.168971,15.197218 h -0.667774 v 0.667775 h 0.667774 z" style="fill:#333;fill-opacity:1;stroke:none;stroke-width:.095396;stroke-opacity:1"/><path id="path226" fill="#f9f9fb" d="m 36.836745,15.197218 h -0.667774 v 0.667775 h 0.667774 z" style="fill:#333;fill-opacity:1;stroke:none;stroke-width:.095396;stroke-opacity:1"/><path id="path227" fill="#f9f9fb" d="m 39.507841,15.197218 h -0.667774 v 0.667775 h 0.667774 z" style="fill:#333;fill-opacity:1;stroke:none;stroke-width:.095396;stroke-opacity:1"/><path id="path228" fill="#f9f9fb" d="m 40.175614,15.197218 h -0.667773 v 0.667775 h 0.667773 z" style="fill:#333;fill-opacity:1;stroke:none;stroke-width:.095396;stroke-opacity:1"/><path id="path229" fill="#f9f9fb" d="m 42.846711,15.197218 h -0.667775 v 0.667775 h 0.667775 z" style="fill:#333;fill-opacity:1;stroke:none;stroke-width:.095396;stroke-opacity:1"/><path id="path230" fill="#f9f9fb" d="m 43.514485,15.197218 h -0.667774 v 0.667775 h 0.667774 z" style="fill:#333;fill-opacity:1;stroke:none;stroke-width:.095396;stroke-opacity:1"/><path id="path231" fill="#f9f9fb" d="m 46.185581,15.197218 h -0.667774 v 0.667775 h 0.667774 z" style="fill:#333;fill-opacity:1;stroke:none;stroke-width:.095396;stroke-opacity:1"/><path id="path232" fill="#f9f9fb" d="m 48.856676,15.197218 h -0.667773 v 0.667775 h 0.667773 z" style="fill:#333;fill-opacity:1;stroke:none;stroke-width:.095396;stroke-opacity:1"/><path id="path233" fill="#f9f9fb" d="m 49.524451,15.197218 h -0.667775 v 0.667775 h 0.667775 z" style="fill:#333;fill-opacity:1;stroke:none;stroke-width:.095396;stroke-opacity:1"/><path id="path234" fill="#f9f9fb" d="m 52.195547,15.197218 h -0.667775 v 0.667775 h 0.667775 z" style="fill:#333;fill-opacity:1;stroke:none;stroke-width:.095396;stroke-opacity:1"/><path id="path235" fill="#f9f9fb" d="m 52.863321,15.197218 h -0.667774 v 0.667775 h 0.667774 z" style="fill:#333;fill-opacity:1;stroke:none;stroke-width:.095396;stroke-opacity:1"/><path id="path236" fill="#f9f9fb" d="m 56.20219,15.197218 h -0.667773 v 0.667775 h 0.667773 z" style="fill:#333;fill-opacity:1;stroke:none;stroke-width:.095396;stroke-opacity:1"/><path id="path237" fill="#f9f9fb" d="m 22.813491,15.864993 h -0.667774 v 0.667773 h 0.667774 z" style="fill:#333;fill-opacity:1;stroke:none;stroke-width:.095396;stroke-opacity:1"/><path id="path238" fill="#f9f9fb" d="m 23.481265,15.864993 h -0.667774 v 0.667773 h 0.667774 z" style="fill:#333;fill-opacity:1;stroke:none;stroke-width:.095396;stroke-opacity:1"/><path id="path239" fill="#f9f9fb" d="m 27.487909,15.864993 h -0.667774 v 0.667773 h 0.667774 z" style="fill:#333;fill-opacity:1;stroke:none;stroke-width:.095396;stroke-opacity:1"/><path id="path240" fill="#f9f9fb" d="m 28.155682,15.864993 h -0.667773 v 0.667773 h 0.667773 z" style="fill:#333;fill-opacity:1;stroke:none;stroke-width:.095396;stroke-opacity:1"/><path id="path241" fill="#f9f9fb" d="m 28.823457,15.864993 h -0.667775 v 0.667773 h 0.667775 z" style="fill:#333;fill-opacity:1;stroke:none;stroke-width:.095396;stroke-opacity:1"/><path id="path242" fill="#f9f9fb" d="m 29.491231,15.864993 h -0.667774 v 0.667773 h 0.667774 z" style="fill:#333;fill-opacity:1;stroke:none;stroke-width:.095396;stroke-opacity:1"/><path id="path243" fill="#f9f9fb" d="m 30.826779,15.864993 h -0.667774 v 0.667773 h 0.667774 z" style="fill:#333;fill-opacity:1;stroke:none;stroke-width:.095396;stroke-opacity:1"/><path id="path244" fill="#f9f9fb" d="m 32.830101,15.864993 h -0.667774 v 0.667773 h 0.667774 z" style="fill:#333;fill-opacity:1;stroke:none;stroke-width:.095396;stroke-opacity:1"/><path id="path245" fill="#f9f9fb" d="m 33.497875,15.864993 h -0.667774 v 0.667773 h 0.667774 z" style="fill:#333;fill-opacity:1;stroke:none;stroke-width:.095396;stroke-opacity:1"/><path id="path246" fill="#f9f9fb" d="m 34.165649,15.864993 h -0.667774 v 0.667773 h 0.667774 z" style="fill:#333;fill-opacity:1;stroke:none;stroke-width:.095396;stroke-opacity:1"/><path id="path247" fill="#f9f9fb" d="m 34.833423,15.864993 h -0.667774 v 0.667773 h 0.667774 z" style="fill:#333;fill-opacity:1;stroke:none;stroke-width:.095396;stroke-opacity:1"/><path id="path248" fill="#f9f9fb" d="m 35.501197,15.864993 h -0.667774 v 0.667773 h 0.667774 z" style="fill:#333;fill-opacity:1;stroke:none;stroke-width:.095396;stroke-opacity:1"/><path id="path249" fill="#f9f9fb" d="m 36.836745,15.864993 h -0.667774 v 0.667773 h 0.667774 z" style="fill:#333;fill-opacity:1;stroke:none;stroke-width:.095396;stroke-opacity:1"/><path id="path250" fill="#f9f9fb" d="m 38.172293,15.864993 h -0.667774 v 0.667773 h 0.667774 z" style="fill:#333;fill-opacity:1;stroke:none;stroke-width:.095396;stroke-opacity:1"/><path id="path251" fill="#f9f9fb" d="m 38.840067,15.864993 h -0.667774 v 0.667773 h 0.667774 z" style="fill:#333;fill-opacity:1;stroke:none;stroke-width:.095396;stroke-opacity:1"/><path id="path252" fill="#f9f9fb" d="m 39.507841,15.864993 h -0.667774 v 0.667773 h 0.667774 z" style="fill:#333;fill-opacity:1;stroke:none;stroke-width:.095396;stroke-opacity:1"/><path id="path253" fill="#f9f9fb" d="m 40.175614,15.864993 h -0.667773 v 0.667773 h 0.667773 z" style="fill:#333;fill-opacity:1;stroke:none;stroke-width:.095396;stroke-opacity:1"/><path id="path254" fill="#f9f9fb" d="m 40.843389,15.864993 h -0.667775 v 0.667773 h 0.667775 z" style="fill:#333;fill-opacity:1;stroke:none;stroke-width:.095396;stroke-opacity:1"/><path id="path255" fill="#f9f9fb" d="m 41.511163,15.864993 h -0.667774 v 0.667773 h 0.667774 z" style="fill:#333;fill-opacity:1;stroke:none;stroke-width:.095396;stroke-opacity:1"/><path id="path256" fill="#f9f9fb" d="m 43.514485,15.864993 h -0.667774 v 0.667773 h 0.667774 z" style="fill:#333;fill-opacity:1;stroke:none;stroke-width:.095396;stroke-opacity:1"/><path id="path257" fill="#f9f9fb" d="m 44.182258,15.864993 h -0.667773 v 0.667773 h 0.667773 z" style="fill:#333;fill-opacity:1;stroke:none;stroke-width:.095396;stroke-opacity:1"/><path id="path258" fill="#f9f9fb" d="m 44.850033,15.864993 h -0.667775 v 0.667773 h 0.667775 z" style="fill:#333;fill-opacity:1;stroke:none;stroke-width:.095396;stroke-opacity:1"/><path id="path259" fill="#f9f9fb" d="m 45.517807,15.864993 h -0.667774 v 0.667773 h 0.667774 z" style="fill:#333;fill-opacity:1;stroke:none;stroke-width:.095396;stroke-opacity:1"/><path id="path260" fill="#f9f9fb" d="m 47.521129,15.864993 h -0.667775 v 0.667773 h 0.667775 z" style="fill:#333;fill-opacity:1;stroke:none;stroke-width:.095396;stroke-opacity:1"/><path id="path261" fill="#f9f9fb" d="m 48.188903,15.864993 h -0.667774 v 0.667773 h 0.667774 z" style="fill:#333;fill-opacity:1;stroke:none;stroke-width:.095396;stroke-opacity:1"/><path id="path262" fill="#f9f9fb" d="m 48.856676,15.864993 h -0.667773 v 0.667773 h 0.667773 z" style="fill:#333;fill-opacity:1;stroke:none;stroke-width:.095396;stroke-opacity:1"/><path id="path263" fill="#f9f9fb" d="m 49.524451,15.864993 h -0.667775 v 0.667773 h 0.667775 z" style="fill:#333;fill-opacity:1;stroke:none;stroke-width:.095396;stroke-opacity:1"/><path id="path264" fill="#f9f9fb" d="m 50.192225,15.864993 h -0.667774 v 0.667773 h 0.667774 z" style="fill:#333;fill-opacity:1;stroke:none;stroke-width:.095396;stroke-opacity:1"/><path id="path265" fill="#f9f9fb" d="m 50.859998,15.864993 h -0.667773 v 0.667773 h 0.667773 z" style="fill:#333;fill-opacity:1;stroke:none;stroke-width:.095396;stroke-opacity:1"/><path id="path266" fill="#f9f9fb" d="m 51.527772,15.864993 h -0.667774 v 0.667773 h 0.667774 z" style="fill:#333;fill-opacity:1;stroke:none;stroke-width:.095396;stroke-opacity:1"/><path id="path267" fill="#f9f9fb" d="m 52.863321,15.864993 h -0.667774 v 0.667773 h 0.667774 z" style="fill:#333;fill-opacity:1;stroke:none;stroke-width:.095396;stroke-opacity:1"/><path id="path268" fill="#f9f9fb" d="m 53.531094,15.864993 h -0.667773 v 0.667773 h 0.667773 z" style="fill:#333;fill-opacity:1;stroke:none;stroke-width:.095396;stroke-opacity:1"/><path id="path269" fill="#f9f9fb" d="m 54.198868,15.864993 h -0.667774 v 0.667773 h 0.667774 z" style="fill:#333;fill-opacity:1;stroke:none;stroke-width:.095396;stroke-opacity:1"/><path id="path270" fill="#f9f9fb" d="m 54.866643,15.864993 h -0.667775 v 0.667773 h 0.667775 z" style="fill:#333;fill-opacity:1;stroke:none;stroke-width:.095396;stroke-opacity:1"/><path id="path271" fill="#f9f9fb" d="m 55.534417,15.864993 h -0.667774 v 0.667773 h 0.667774 z" style="fill:#333;fill-opacity:1;stroke:none;stroke-width:.095396;stroke-opacity:1"/></g></svg>