<?xml version="1.0" encoding="UTF-8" standalone="no"?>
<!-- Created with Inkscape (http://www.inkscape.org/) -->

<svg
   width="235"
   height="95"
   viewBox="0 0 62.177082 25.135417"
   version="1.1"
   id="svg1"
   xmlns="http://www.w3.org/2000/svg"
   xmlns:svg="http://www.w3.org/2000/svg">
  <defs
     id="defs1" />
  <g
     id="layer2"
     style="display:inline">
    <rect
       style="display:inline;fill:none;fill-opacity:1;stroke-width:0.396875"
       id="rect6-9"
       width="62.177082"
       height="25.135416"
       x="6.357829e-07"
       y="3.1789145e-07" />
    <path
       d="m 9.643323,7.7136412 c -2.9738021,0 -5.3832339,2.4094318 -5.3832339,5.3832338 0,2.973802 2.4094318,5.383234 5.3832339,5.383234 2.973802,0 5.383234,-2.409432 5.383234,-5.383234 0,-2.973802 -2.409432,-5.3832338 -5.383234,-5.3832338 z m 0,9.7245508 c -2.3985777,0 -4.341318,-1.942739 -4.341318,-4.341317 0,-2.398577 1.9427403,-4.3413179 4.341318,-4.3413179 2.398578,0 4.341318,1.9427409 4.341318,4.3413179 0,2.398578 -1.94274,4.341317 -4.341318,4.341317 z"
       id="path1-1"
       style="display:inline;fill:#333333;fill-opacity:1;stroke-width:0.0217066" />
    <path
       d="m 21.00122,14.535665 q 0,0.466302 -0.233151,0.780159 -0.23315,0.313858 -0.663584,0.475269 -0.430432,0.161413 -1.022277,0.161413 -0.502171,0 -0.869833,-0.08071 -0.358693,-0.08071 -0.636681,-0.224183 v -0.717388 q 0.286954,0.143477 0.690486,0.269021 0.412497,0.116574 0.833963,0.116574 0.600813,0 0.869833,-0.188314 0.26902,-0.197281 0.26902,-0.520106 0,-0.179347 -0.09864,-0.322824 -0.09864,-0.143478 -0.358694,-0.286956 -0.251086,-0.143477 -0.726355,-0.322824 -0.466303,-0.179347 -0.798095,-0.358694 -0.331791,-0.179346 -0.511138,-0.430433 -0.179347,-0.251085 -0.179347,-0.645649 0,-0.60978 0.493205,-0.941572 0.502171,-0.331792 1.309233,-0.331792 0.439399,0 0.816028,0.08967 0.385596,0.08071 0.717388,0.233151 l -0.269021,0.627715 q -0.304889,-0.125543 -0.636681,-0.215216 -0.331792,-0.08967 -0.681519,-0.08967 -0.484236,0 -0.74429,0.161412 -0.251086,0.152444 -0.251086,0.421465 0,0.197282 0.116576,0.340759 0.116575,0.13451 0.385596,0.26902 0.277988,0.125544 0.735323,0.304891 0.457334,0.170379 0.780159,0.349726 0.322825,0.179347 0.493204,0.4394 0.170379,0.251086 0.170379,0.636682 z m 5.344541,-1.085049 q 0,0.600812 -0.161412,1.067114 -0.152445,0.457335 -0.448368,0.78016 -0.286955,0.322824 -0.70842,0.493203 -0.412499,0.161413 -0.923637,0.161413 -0.475269,0 -0.8788,-0.161413 -0.403531,-0.170379 -0.699453,-0.493203 -0.295923,-0.322825 -0.466302,-0.78016 -0.161413,-0.466302 -0.161413,-1.067114 0,-0.798095 0.269021,-1.345102 0.26902,-0.555977 0.771192,-0.842931 0.502172,-0.295923 1.192657,-0.295923 0.654617,0 1.14782,0.295923 0.502172,0.286954 0.78016,0.842931 0.286955,0.547007 0.286955,1.345102 z m -3.631775,0 q 0,0.564943 0.143476,0.986408 0.152445,0.412499 0.466302,0.636682 0.313857,0.224184 0.798095,0.224184 0.484237,0 0.798094,-0.224184 0.313857,-0.224183 0.457335,-0.636682 0.152445,-0.421465 0.152445,-0.986408 0,-0.573911 -0.152445,-0.977441 -0.152445,-0.403531 -0.466303,-0.618747 -0.304889,-0.224184 -0.798094,-0.224184 -0.735322,0 -1.067113,0.484237 -0.331792,0.484237 -0.331792,1.336135 z m 8.895605,-2.394282 v 4.806499 H 30.963942 L 30.847367,15.226151 H 30.8115 q -0.152445,0.251086 -0.394563,0.412498 -0.24212,0.161413 -0.529074,0.233151 -0.286956,0.08071 -0.600812,0.08071 -0.573911,0 -0.968474,-0.179347 -0.385599,-0.188315 -0.582881,-0.573909 -0.197281,-0.385597 -0.197281,-0.995377 v -3.147543 h 0.798094 v 3.093735 q 0,0.573911 0.260053,0.860866 0.260053,0.286955 0.807062,0.286955 0.53804,0 0.84293,-0.197282 0.313857,-0.206249 0.4394,-0.591845 0.134511,-0.394563 0.134511,-0.950538 v -2.501891 z m 3.766287,-0.08967 q 0.13451,0 0.286955,0.01793 0.161412,0.009 0.277988,0.03587 l -0.09864,0.726355 q -0.116576,-0.0269 -0.260054,-0.04483 -0.13451,-0.01793 -0.260052,-0.01793 -0.277989,0 -0.529074,0.116575 -0.251086,0.116576 -0.448367,0.331792 -0.197283,0.206249 -0.313857,0.502172 -0.107609,0.295923 -0.107609,0.663583 v 2.564662 h -0.789127 v -4.806509 h 0.645649 l 0.08967,0.8788 h 0.03587 q 0.152444,-0.26902 0.367661,-0.484237 0.215216,-0.224183 0.493204,-0.349727 0.277987,-0.13451 0.60978,-0.13451 z m 3.210307,4.985846 q -0.636682,0 -1.138854,-0.260053 -0.493203,-0.260053 -0.780159,-0.807061 -0.277988,-0.547008 -0.277988,-1.398907 0,-0.887767 0.295923,-1.443743 0.295923,-0.555976 0.798095,-0.816028 0.511138,-0.260054 1.156787,-0.260054 0.367661,0 0.708421,0.08071 0.340759,0.07174 0.555975,0.179347 l -0.242117,0.654616 q -0.215218,-0.08071 -0.502172,-0.152445 -0.286956,-0.07174 -0.538041,-0.07174 -0.484237,0 -0.798095,0.206249 -0.313857,0.206249 -0.466302,0.60978 -0.152445,0.403531 -0.152445,1.004343 0,0.57391 0.152445,0.977441 0.152445,0.403531 0.457336,0.60978 0.304889,0.206249 0.762223,0.206249 0.394564,0 0.690486,-0.08071 0.304891,-0.08071 0.555976,-0.197281 v 0.699453 q -0.242118,0.125543 -0.538041,0.188314 -0.286955,0.07174 -0.699453,0.07174 z m 4.232584,-4.985846 q 0.618747,0 1.058147,0.269021 0.448368,0.26902 0.681518,0.762224 0.242118,0.484237 0.242118,1.138855 v 0.475268 h -3.291016 q 0.01793,0.816029 0.412498,1.246461 0.403531,0.421466 1.120919,0.421466 0.457334,0 0.807061,-0.08071 0.358694,-0.08967 0.735322,-0.251087 v 0.690486 q -0.367661,0.161413 -0.726355,0.233151 -0.358694,0.08071 -0.851898,0.08071 -0.681518,0 -1.210592,-0.277988 -0.520106,-0.277988 -0.816028,-0.824995 -0.286956,-0.555977 -0.286956,-1.35407 0,-0.789127 0.260053,-1.35407 0.269021,-0.564943 0.74429,-0.869833 0.484237,-0.30489 1.120919,-0.304889 z m -0.009,0.64565 q -0.564944,0 -0.896735,0.367661 -0.322825,0.358694 -0.385596,1.004342 h 2.448086 q 0,-0.412497 -0.125543,-0.717387 -0.125543,-0.30489 -0.385596,-0.475269 -0.251086,-0.179347 -0.654616,-0.179347 z M 46.8092,11.047371 q 0,0.170379 -0.01793,0.349726 -0.009,0.179347 -0.0269,0.322824 h 0.05381 q 0.152445,-0.251085 0.385596,-0.412498 0.23315,-0.161412 0.520104,-0.242118 0.286958,-0.08967 0.591846,-0.08967 0.582877,0 0.968473,0.188316 0.394565,0.179346 0.591846,0.564942 0.197281,0.385596 0.197281,1.004343 v 3.129605 h -0.780158 v -3.0758 q 0,-0.582879 -0.260055,-0.869833 -0.260052,-0.286956 -0.816029,-0.286956 -0.538041,0 -0.842929,0.206249 -0.304891,0.197282 -0.4394,0.591845 -0.125544,0.385596 -0.125544,0.950539 v 2.483956 H 46.020112 V 9.0476477 h 0.789126 z m 8.770069,0.009 v 4.806499 h -0.64565 l -0.116576,-0.636682 h -0.03587 q -0.152444,0.251087 -0.394559,0.412498 -0.242117,0.161413 -0.529077,0.233152 -0.286952,0.08071 -0.600812,0.08071 -0.573911,0 -0.968473,-0.179347 -0.385593,-0.188315 -0.582874,-0.57391 -0.197281,-0.385596 -0.197281,-0.995377 v -3.14758 h 0.798092 v 3.093735 q 0,0.573911 0.260058,0.860866 0.260052,0.286955 0.807061,0.286955 0.538041,0 0.842929,-0.197282 0.31386,-0.206249 0.439401,-0.591845 0.134508,-0.394563 0.134508,-0.950538 v -2.501891 z m 3.129604,4.250523 q 0.179344,0 0.367662,-0.0269 0.188312,-0.03587 0.304889,-0.07174 v 0.600812 q -0.125545,0.06277 -0.358697,0.09864 -0.233146,0.04484 -0.448367,0.04484 -0.376628,0 -0.699453,-0.125542 -0.313823,-0.13455 -0.511104,-0.457375 -0.197281,-0.322824 -0.197281,-0.905701 v -2.797814 h -0.681519 v -0.376631 l 0.690485,-0.313857 0.313857,-1.0222778 h 0.466301 v 1.1029838 h 1.389941 v 0.60978 h -1.389941 v 2.779878 q 0,0.4394 0.20625,0.654617 0.215217,0.206249 0.547011,0.206248 z"
       id="text1"
       style="font-size:113.333px;line-height:1.1;font-family:'Noto Sans';-inkscape-font-specification:'Noto Sans, Normal';text-align:center;text-anchor:middle;fill:#333333;fill-opacity:1;stroke-width:0.118686"
       aria-label="sourcehut" />
  </g>
</svg>
