<?xml version="1.0" encoding="UTF-8" standalone="no"?>
<!-- Created with Inkscape (http://www.inkscape.org/) -->

<svg
   width="235"
   height="95"
   viewBox="0 0 62.177082 25.135417"
   version="1.1"
   id="svg1"
   xmlns="http://www.w3.org/2000/svg"
   xmlns:svg="http://www.w3.org/2000/svg">
  <defs
     id="defs1" />
  <g
     id="layer8"
     style="display:inline"
     transform="translate(0,2.1166668)">
    <rect
       style="display:inline;fill:none;fill-opacity:1;stroke-width:0.396875"
       id="rect6"
       width="62.177082"
       height="25.135416"
       x="0"
       y="-2.1166668" />
    <path
       style="font-size:16.2278px;font-family:'IBM Plex Mono';-inkscape-font-specification:'IBM Plex Mono, Normal';display:inline;fill:#333333;fill-opacity:1;stroke-width:0.153511"
       d="m 5.3939213,14.637189 q -0.6214159,0 -0.9132926,-0.329539 -0.2824617,-0.329538 -0.2824617,-0.875631 0,-0.131815 0.00942,-0.263631 0.018833,-0.141231 0.056494,-0.357785 L 4.612447,10.739217 H 3.3696152 L 3.5485075,9.6658633 h 0.7814778 q 0.3012921,0 0.4519385,-0.1224 Q 4.9419857,9.4210632 4.9890626,9.10094 L 5.1773704,7.9522622 H 6.4578637 L 6.175402,9.6658633 H 8.0773109 L 7.8984184,10.739217 H 5.9965096 l -0.451939,2.711633 0.1883078,0.06591 1.468801,-1.158093 0.6779082,0.772062 -0.5649234,0.4896 q -0.3012926,0.254215 -0.5460929,0.451939 -0.2448002,0.188307 -0.4707695,0.320123 -0.2165538,0.1224 -0.4331081,0.178893 -0.2165537,0.06591 -0.4707695,0.06591 z m 4.7359457,0 q -0.3860311,0 -0.6402469,-0.131815 Q 9.2354049,14.364143 9.0753431,14.119343 8.9152815,13.865127 8.8493737,13.507342 8.783466,13.149558 8.783466,12.707034 q 0,-0.706154 0.1506463,-1.280493 0.1506462,-0.583754 0.433108,-0.998032 0.2824617,-0.414277 0.6873237,-0.6402457 0.414277,-0.235385 0.922708,-0.235385 0.555508,0 0.819139,0.273046 0.273047,0.2636317 0.376615,0.7438157 h 0.06591 l 0.150647,-0.9038767 h 1.374647 l -0.640247,3.8508947 h 0.499016 L 13.4535,14.524205 h -0.706155 q -0.536677,0 -0.809723,-0.263632 -0.263631,-0.26363 -0.188308,-0.772061 l 0.01883,-0.122401 h -0.04708 q -0.141231,0.282462 -0.291878,0.517847 -0.14123,0.225969 -0.329538,0.395446 -0.178893,0.169477 -0.414277,0.263631 -0.235385,0.09415 -0.555508,0.09415 z m 0.621416,-1.063939 q 0.2448,0 0.442523,-0.1224 0.197723,-0.1224 0.357785,-0.329539 0.103569,-0.131815 0.235385,-0.376616 0.131815,-0.2448 0.178892,-0.546092 l 0.131816,-0.781478 q 0.06591,-0.38603 -0.09415,-0.593169 -0.150647,-0.207139 -0.59317,-0.207139 -0.517846,0 -0.762646,0.301293 -0.244801,0.291877 -0.338955,0.847385 l -0.09415,0.564923 q -0.01883,0.08474 -0.02824,0.197724 -0.0094,0.103569 -0.0094,0.235384 0,0.338955 0.122399,0.574339 0.122401,0.235385 0.451939,0.235385 z m 3.559021,0.950955 0.809723,-4.8583417 h 1.374647 l -0.188307,1.1580927 h 0.04708 q 0.273046,-0.593169 0.630831,-0.9321237 0.3672,-0.338954 0.950954,-0.338954 0.357785,0 0.602585,0.112985 0.254216,0.112985 0.414277,0.310708 0.160062,0.1883077 0.235385,0.4425227 0.07532,0.254215 0.07532,0.536677 0,0.207139 -0.02824,0.423693 -0.01883,0.216554 -0.07532,0.555508 l -0.43311,2.589233 h -1.374647 l 0.461354,-2.75871 q 0.01883,-0.131815 0.03766,-0.263631 0.02824,-0.141231 0.02824,-0.320124 0,-0.09415 -0.02824,-0.197722 -0.02824,-0.10357 -0.09415,-0.188308 -0.06591,-0.08474 -0.178893,-0.131816 -0.103569,-0.05649 -0.263631,-0.05649 -0.2448,0 -0.423692,0.112985 -0.178892,0.112985 -0.338954,0.329538 -0.10357,0.141231 -0.254216,0.395447 -0.141231,0.2448 -0.188308,0.546092 l -0.423702,2.532737 z m 7.522901,1.996062 q -0.677908,0 -1.148678,-0.141231 -0.470769,-0.141231 -0.83797,-0.574339 l 0.819139,-0.847385 q 0.22597,0.273047 0.508432,0.386031 0.291876,0.112985 0.621415,0.112985 0.263631,0 0.470769,-0.05649 0.207139,-0.05649 0.367201,-0.216554 0.169477,-0.160062 0.282462,-0.442523 0.112984,-0.282462 0.188308,-0.724986 l 0.141231,-0.837969 h -0.0565 q -0.131815,0.282461 -0.291877,0.517846 -0.150646,0.225969 -0.338954,0.395447 -0.188308,0.169477 -0.433108,0.263631 -0.2448,0.09415 -0.555508,0.09415 -0.395446,0 -0.668493,-0.14123 -0.273046,-0.141231 -0.451938,-0.395446 -0.178893,-0.254216 -0.263632,-0.59317 -0.07532,-0.34837 -0.07532,-0.753232 0,-0.659077 0.150647,-1.214585 0.150646,-0.555508 0.433108,-0.950954 0.291877,-0.4048617 0.696739,-0.6214157 0.414277,-0.225969 0.922708,-0.225969 0.59317,0 0.885047,0.273046 0.291876,0.2636307 0.395446,0.7438147 h 0.07532 l 0.150646,-0.9038767 h 1.374647 l -0.753229,4.5193887 q -0.197724,1.18634 -0.866216,1.760678 -0.659077,0.574339 -1.741847,0.574339 z m 0.338954,-3.14474 q 0.254215,0 0.442523,-0.112985 0.188308,-0.1224 0.357785,-0.320123 0.112985,-0.131816 0.254216,-0.357785 0.150646,-0.225969 0.207138,-0.564923 l 0.103569,-0.630832 q 0.05649,-0.338954 -0.1224,-0.555508 -0.169476,-0.216554 -0.630831,-0.216554 -0.527261,0 -0.800308,0.320124 -0.273046,0.320123 -0.357785,0.828554 l -0.06591,0.395447 q -0.01883,0.08474 -0.02824,0.197723 -0.0094,0.112984 -0.0094,0.263631 0,0.310707 0.141231,0.536677 0.150647,0.216554 0.508431,0.216554 z m 5.743392,1.261662 q -0.583755,0 -0.866216,-0.301292 -0.282462,-0.310708 -0.282462,-0.828555 0,-0.160061 0.01883,-0.310708 0.01883,-0.150646 0.07532,-0.442523 L 27.62367,8.6301705 h -1.431139 l 0.178892,-1.0733549 h 2.815202 l -1.101601,5.9693574 0.141231,0.04708 1.318155,-1.346402 0.753231,0.668493 -0.574339,0.659078 q -0.480185,0.536677 -0.903877,0.809723 -0.414277,0.273047 -0.903878,0.273047 z m 5.752808,0 q -1.08277,0 -1.600617,-0.546092 -0.517846,-0.555508 -0.517846,-1.525294 0,-0.677908 0.207138,-1.233416 0.207139,-0.555508 0.574339,-0.950955 0.376616,-0.3954457 0.903878,-0.6119997 0.527262,-0.216554 1.176923,-0.216554 0.367201,0 0.687324,0.08474 0.329538,0.08474 0.574339,0.254215 0.2448,0.1600617 0.386031,0.4142777 0.141231,0.2448 0.141231,0.583754 0,0.291876 -0.122401,0.583754 -0.1224,0.291877 -0.480184,0.536677 -0.34837,0.235385 -0.998032,0.404862 -0.640247,0.160062 -1.67594,0.197723 -0.0094,0.05649 -0.0094,0.09415 0,0.02824 0,0.06591 0,0.395446 0.216553,0.602585 0.216554,0.207139 0.71557,0.207139 0.197724,0 0.357785,-0.03766 0.169477,-0.03766 0.320123,-0.131816 0.160062,-0.103569 0.310708,-0.254215 0.160062,-0.160062 0.348369,-0.404862 l 0.856801,0.555508 q -0.188308,0.273047 -0.414277,0.517846 -0.216554,0.235385 -0.499016,0.423693 -0.282461,0.178893 -0.640246,0.282462 -0.357785,0.103569 -0.819139,0.103569 z m 0.602585,-4.114526 q -0.45194,0 -0.772063,0.273047 -0.320123,0.263631 -0.451938,0.894462 l -0.02824,0.131815 q 0.649662,-0.03766 1.016862,-0.1224 0.376616,-0.08474 0.555508,-0.197723 0.188308,-0.112985 0.235385,-0.2448 0.04708,-0.131815 0.04708,-0.2448 0,-0.489601 -0.602585,-0.489601 z m 5.856376,2.843448 h -0.04708 q -0.141231,0.282462 -0.301292,0.517847 -0.150647,0.225969 -0.34837,0.395446 -0.188308,0.169477 -0.433108,0.263631 -0.235385,0.09415 -0.546093,0.09415 -0.386031,0 -0.659077,-0.131815 -0.263631,-0.131816 -0.433108,-0.376616 -0.169477,-0.254216 -0.254216,-0.602585 -0.07532,-0.34837 -0.07532,-0.772062 0,-0.724985 0.160062,-1.308739 0.160061,-0.59317 0.451939,-1.007447 0.291877,-0.423693 0.696738,-0.6496617 0.414278,-0.235385 0.922708,-0.235385 0.574339,0 0.866217,0.273046 0.301292,0.2636317 0.404862,0.7438157 h 0.06591 l 0.499016,-3.0129244 h 1.374647 L 41.31366,14.524205 h -1.374648 z m -1.063939,0.207139 q 0.254216,0 0.451939,-0.1224 0.197723,-0.1224 0.3672,-0.338954 0.112985,-0.131816 0.254216,-0.367201 0.141231,-0.2448 0.188308,-0.546092 l 0.131815,-0.781478 q 0.06591,-0.38603 -0.1224,-0.593169 -0.178892,-0.207139 -0.630831,-0.207139 -0.508431,0 -0.781478,0.301293 -0.273046,0.291877 -0.3672,0.847385 l -0.09415,0.564923 q -0.01883,0.08474 -0.02824,0.197724 -0.0094,0.103569 -0.0094,0.225969 0.0094,0.34837 0.141231,0.583754 0.141231,0.235385 0.499015,0.235385 z m 5.658654,1.063939 q -0.47077,0 -0.668493,-0.178892 -0.197723,-0.188308 -0.197723,-0.451939 0,-0.141231 0.05649,-0.480185 0.04708,-0.301293 0.301293,-0.527262 0.263631,-0.225969 0.781477,-0.225969 0.47077,0 0.668493,0.188308 0.197723,0.178892 0.197723,0.442523 0,0.141231 -0.05649,0.480185 -0.04708,0.301292 -0.310708,0.527262 -0.254215,0.225969 -0.772062,0.225969 z m 5.677484,0 q -0.7344,0 -1.271078,-0.197723 -0.527262,-0.207139 -0.772061,-0.59317 l 0.772061,-0.762646 q 0.207139,0.291877 0.564924,0.442523 0.3672,0.141231 0.800308,0.141231 0.423692,0 0.668493,-0.131815 0.254216,-0.141231 0.254216,-0.404862 0,-0.197724 -0.141231,-0.282462 -0.141231,-0.09415 -0.357786,-0.141231 l -0.696738,-0.150646 q -0.273047,-0.05649 -0.517847,-0.150646 -0.235385,-0.09415 -0.414277,-0.2448 -0.178892,-0.160062 -0.282462,-0.386032 -0.09415,-0.225969 -0.09415,-0.546093 0,-0.404861 0.160061,-0.715569 0.169477,-0.320123 0.461354,-0.5272617 0.301293,-0.216554 0.706155,-0.320123 0.404861,-0.112985 0.875631,-0.112985 0.649662,0 1.167508,0.188308 0.517847,0.178892 0.762647,0.4990157 l -0.753231,0.772062 q -0.160062,-0.207139 -0.480185,-0.34837 -0.320124,-0.141231 -0.734401,-0.141231 -0.3672,0 -0.59317,0.131816 -0.216553,0.131815 -0.216553,0.395446 0,0.197723 0.1224,0.282462 0.131815,0.07532 0.357785,0.1224 l 0.724985,0.160062 q 0.612,0.131815 0.960369,0.423692 0.34837,0.291877 0.34837,0.885047 0,0.404862 -0.169477,0.724985 -0.169477,0.310708 -0.480185,0.536677 -0.310708,0.216554 -0.753231,0.338955 -0.433108,0.112984 -0.979201,0.112984 z m 4.613545,-7.0803734 h 1.374648 l -0.536678,3.2671404 h 0.04708 q 0.273046,-0.593169 0.630831,-0.9321237 0.3672,-0.338954 0.950955,-0.338954 0.357784,0 0.602584,0.112985 0.254216,0.112985 0.414278,0.310708 0.160061,0.1883077 0.235384,0.4425227 0.07532,0.254215 0.07532,0.536677 0,0.207139 -0.02824,0.423693 -0.01883,0.216554 -0.07532,0.555508 l -0.433108,2.589233 H 56.89615 l 0.461354,-2.75871 q 0.01883,-0.131815 0.03766,-0.263631 0.02825,-0.141231 0.02825,-0.320124 0,-0.09415 -0.02825,-0.197722 -0.02824,-0.10357 -0.09415,-0.188308 -0.06591,-0.08474 -0.178892,-0.131816 -0.103569,-0.05649 -0.263631,-0.05649 -0.2448,0 -0.423692,0.112985 -0.178892,0.112985 -0.338954,0.329538 -0.10357,0.141231 -0.254216,0.395447 -0.141231,0.2448 -0.188308,0.546092 l -0.423692,2.532741 h -1.374647 z"
       id="text2"
       aria-label="tangled.sh" />
  </g>
</svg>
